<?xml version="1.0" encoding="UTF-8" standalone="no"?>
<!-- Generator: Adobe Illustrator 18.0.0, SVG Export Plug-In . SVG Version: 6.00 Build 0)  -->

<svg
   version="1.1"
   id="Capa_1"
   x="0px"
   y="0px"
   viewBox="0 0 58 58"
   style="enable-background:new 0 0 58 58;"
   xml:space="preserve"
   sodipodi:docname="logo-purple.svg"
   inkscape:version="1.1.1 (3bf5ae0d25, 2021-09-20, custom)"
   xmlns:inkscape="http://www.inkscape.org/namespaces/inkscape"
   xmlns:sodipodi="http://sodipodi.sourceforge.net/DTD/sodipodi-0.dtd"
   xmlns="http://www.w3.org/2000/svg"
   xmlns:svg="http://www.w3.org/2000/svg"><defs
   id="defs47">
	
	
	
	
	
</defs><sodipodi:namedview
   id="namedview45"
   pagecolor="#505050"
   bordercolor="#eeeeee"
   borderopacity="1"
   inkscape:pageshadow="0"
   inkscape:pageopacity="0"
   inkscape:pagecheckerboard="0"
   showgrid="false"
   inkscape:zoom="12.396552"
   inkscape:cx="29"
   inkscape:cy="29"
   inkscape:window-width="2560"
   inkscape:window-height="1378"
   inkscape:window-x="0"
   inkscape:window-y="32"
   inkscape:window-maximized="1"
   inkscape:current-layer="Capa_1" />
<path
   style="fill:#8482d1;fill-opacity:1"
   d="m 44,18.394 v 21.141 c 0,2.722 -2.207,4.929 -4.929,4.929 L 22,44.535 l -10,11 v -11 H 4.929 C 2.207,44.535 0,42.328 0,39.606 V 18.465 C 0,15.743 2.207,13.536 4.929,13.536 L 39.07,13.465 c 2.723,0 4.93,2.207 4.93,4.929 z"
   id="path2" /><path
   style="fill:#5c5b94;fill-opacity:1"
   d="M 53.071,2.535 18.93,2.465 C 16.207,2.465 14,4.672 14,7.394 v 6.122 l 25.071,-0.052 c 2.722,0 4.929,2.207 4.929,4.93 v 18.441 l 7,7.7 v -11 h 2.071 C 55.793,33.535 58,31.328 58,28.606 V 7.465 c 0,-2.723 -2.207,-4.93 -4.929,-4.93 z"
   id="path4" /><circle
   style="fill:#ffffff"
   cx="11"
   cy="29.450001"
   r="3"
   id="circle6" /><circle
   style="fill:#ffffff"
   cx="22"
   cy="29.450001"
   r="3"
   id="circle8" /><circle
   style="fill:#ffffff"
   cx="33"
   cy="29.450001"
   r="3"
   id="circle10" />
<g
   id="g14">
</g>
<g
   id="g16">
</g>
<g
   id="g18">
</g>
<g
   id="g20">
</g>
<g
   id="g22">
</g>
<g
   id="g24">
</g>
<g
   id="g26">
</g>
<g
   id="g28">
</g>
<g
   id="g30">
</g>
<g
   id="g32">
</g>
<g
   id="g34">
</g>
<g
   id="g36">
</g>
<g
   id="g38">
</g>
<g
   id="g40">
</g>
<g
   id="g42">
</g>
</svg>
